<?xml version="1.0" encoding="utf-8"?>
<!-- Generator: Adobe Illustrator 17.0.0, SVG Export Plug-In . SVG Version: 6.00 Build 0)  -->
<!DOCTYPE svg PUBLIC "-//W3C//DTD SVG 1.1//EN" "http://www.w3.org/Graphics/SVG/1.1/DTD/svg11.dtd">
<svg version="1.1" id="Layer_1" xmlns="http://www.w3.org/2000/svg" xmlns:xlink="http://www.w3.org/1999/xlink" x="0px" y="0px"
	 width="292px" height="75.667px" viewBox="4.5 5.5 292 75.667" enable-background="new 4.5 5.5 292 75.667" xml:space="preserve">
<g>
	<path fill="#161717" d="M145.022,46.898c-0.357,3.438-2.616,4.879-5.455,5.772c-1.088,0.342-1.285,1.22-1.127,2.209
		c1.132,7.107-3.015,11.193-8.179,14.962c-5.522,4.03-11.238,7.401-18.078,8.653c-6.825,1.25-14.428-1.491-16.851-6.57
		c-2.294-4.808-1.804-9.814-0.432-14.808c0.349-1.271,1.517-2.916,0.294-3.838c-1.052-0.793-2.221,0.872-3.38,1.351
		c-1.566,0.648-2.305,1.775-2.424,3.559c-0.229,3.409-2.404,5.905-4.508,8.338c-4.24,4.902-8.729,9.476-15.304,11.257
		c-6.239,1.69-10.787-1.761-10.74-8.256c0.008-1.175,0.001-2.351,0.001-4.216c-11.264,8.489-23.027,14.415-37.293,13.986
		c3.806-1.562,7.475-3.049,11.129-4.572c9.506-3.962,18.672-8.541,26.803-14.96c1.151-0.909,2.208-1.951,3.224-3.012
		c0.743-0.776,1.646-1.551,0.868-2.881c-0.702-1.2-1.317-2.431-2.958-2.459c-0.926-0.016-1.852-0.005-2.777-0.006
		c-4.049-0.004-5.1-1.15-5.103-5.289c-0.002-2.484,1.095-4.463,2.817-6.009c1.804-1.62,3.923-1.561,5.724,0.104
		c5.027,4.646,5.623,10.367,4.036,16.683c-0.552,2.197-1.881,3.752-3.344,5.257c-2.13,2.189-1.689,4.668-0.908,7.148
		c0.881,2.798,3.275,3.524,5.818,3.674c2.957,0.174,5.583-1.031,8.009-2.576c4.474-2.848,8.343-6.376,11.421-10.719
		c0.509-0.719,1.352-1.639,0.722-2.457c-0.469-0.61-1.532-0.317-2.336,0.024c-1.332,0.564-2.787,0.436-4.102,0.219
		c-4.526-0.745-5.211-4.606-2.88-9.041c2.413-4.593,5.437-4.661,8.622-0.557c2.861,3.687,2.861,3.687,6.877,1.178
		c3.332-2.082,3.406-2.103,4.461,1.619c0.631,2.226,1.739,3.834,4.104,4.296c3.253,0.634,5.226-1.146,4.699-4.318
		c-1.335-8.044-2.806-16.067-4.068-24.122c-0.611-3.901-0.948-7.85-1.257-11.789c-0.098-1.247,0.458-2.456,1.613-3.69
		c1.961,4.375,3.696,8.452,4.66,12.928c-1.293,0.036-1.275-1.149-1.994-1.234c-0.554-0.013-0.441,0.39-0.411,0.586
		c0.773,4.978,1.533,9.959,2.372,14.926c0.84,4.973,2.068,9.914,0.929,15.004c-0.53,2.368-0.641,4.838-3.502,6.032
		c-3.009,1.255-5.639,1.427-7.992-1.215c-2.376,7.559,1.282,14.124,8.762,14.92c12.293,1.307,21.781-4.437,30.069-12.811
		c1.168-1.18,1.208-2.433,0.624-3.774c-0.835-1.917-1.749-3.803-2.704-5.664c-0.551-1.074-1.08-2.087-0.935-3.377
		c0.143-1.273-0.181-3.148,0.958-3.507c1.189-0.375,1.408,1.567,1.967,2.504c0.673,1.129,1.457,1.571,2.708,1.334
		c2.172-0.409,4.466-0.64,5.476-3.059c0.614-1.471,0.762-4.141,2.123-4.012c1.828,0.172,1.113,2.767,1.528,4.303
		c0.644,2.386,0.898,4.859,1.34,7.281c1.174,6.429,5.747,6.585,10.139,5.535c2.944-0.704,5.482-2.446,8.024-4.087
		c0.89-0.574,1.021-1.112,0.204-1.647c-2.245-1.471-3.648-5.075-7.378-2.944c-0.723,0.413-0.969-0.263-0.883-0.872
		c0.283-1.999,0.517-3.822,2.968-4.718c5.08-1.857,10.209-2.156,15.464-1.311c1.442,0.232,2.901,0.537,4.262,1.047
		c0.982,0.368,2.58,0.26,2.386,2.094c-0.169,1.599,0.094,3.322-1.763,4.258c-1.96,0.988-3.871,2.074-5.798,3.126
		c-1.222,0.667-0.997,1.268,0.023,1.976c2.938,2.04,8.189,1.398,12.062-1.527c3.659-2.763,3.704-2.918,0.738-6.464
		c-1.963-2.347-3.427-4.979-4.9-7.642c-0.868-1.57-0.384-3.063-0.381-4.58c0.003-1.16,0.929-1.023,1.568-0.545
		c1.251,0.935,2.42,1.98,3.596,3.011c0.399,0.349,1.021,0.945,0.533,1.356c-1.907,1.607-0.025,2.591,0.689,3.353
		c5.807,6.193,4.321,13.273-3.888,17.682c-2.976,1.598-5.789,2.674-9.031,1.219c-1.476-0.662-1.733,0.009-1.853,1.288
		c-0.598,6.371,5.938,11.191,12.009,9.143c7.216-2.434,12.793-7.105,18.137-12.226c1.2-1.15,1.338-2.25,0.461-3.661
		c-2.137-3.436-3.561-7.198-4.804-11.029c-0.601-1.85-0.287-3.645,0.601-5.298c0.234-0.436,4.332,2.967,3.967,3.716
		c-2.361,4.844,3.006,7.428,3.156,11.568c0.089,2.479,0.033,4.861-1.313,6.804c-4.778,6.898-11.269,12.037-19.016,14.868
		c-9.252,3.381-16.439-3.563-14.68-13.475c0.222-1.247,0.799-2.483-0.034-3.712c-1.659-2.452-2.998-2.656-5.475-0.881
		c-3.208,2.299-6.479,4.447-10.358,5.537c-5.043,1.418-8.903-0.426-10.651-5.375c-0.606-1.714-1.149-3.501-1.348-5.296
		C145.971,50.673,145.864,48.847,145.022,46.898z M168.069,46.942c3.869,4.239,3.987,4.241,8.126,0.409
		C173.576,46.609,171.074,47.071,168.069,46.942z M60.204,45.729c-1.588-1.552-3.029-2.124-4.652-0.116
		C56.994,46.838,58.406,46.469,60.204,45.729z M83.832,52.214c-0.24-1.207-1.181-1.177-1.848-1.556
		c-0.839-0.476-1.744-0.592-2.109,0.286c-0.481,1.157,0.851,1.088,1.439,1.372C82.041,52.668,82.901,52.654,83.832,52.214z"/>
	<path fill="#161717" d="M205.721,20.245c-1.586,0-2.489,0-3.506,0c0.602,1.402,1.485,2.432,2.499,3.332
		c7.718,6.848,15.023,14.155,22.997,20.723c1.069,0.881,1.703,1.153,2.576-0.151c0.712-1.063,1.468-2.244,2.502-2.919
		c5.431-3.549,5.002-8.653,3.666-13.847c-1.212-4.709-0.666-9.671-2.414-14.317c-0.483-1.284,0.399-3.014,1.704-4.563
		c2.576,4.296,4.397,8.588,5.768,13.149c-1.596,0.441-1.375-1.364-2.656-1.223c-0.247,3.914,0.735,7.619,1.828,11.923
		c6.891-8.452,14.25-15.859,19.16-26.116c0.25,3.208-0.436,5.323-1.416,7.363c-2.946,6.137-7.308,11.275-11.738,16.336
		c-5.519,6.303-5.638,6.266-3.678,14.832c1.239,5.414,1.898,10.859,1.396,16.396c-0.149,1.643,0.118,4.166-1.642,4.417
		c-0.978,0.139-0.43-2.649-0.524-4.106c-0.436-6.794-1.839-13.413-3.395-20.013c-0.334-1.418-0.825-1.523-1.766-0.508
		c-0.878,0.947-1.763,1.887-2.664,2.812c-2.854,2.93-2.908,3.429-1.087,6.938c0.629,1.212,1.299,2.479,1.554,3.797
		c1.085,5.594-2.916,10.513-8.661,10.813c-2.994,0.156-4.105-0.805-4.016-3.825c0.113-3.834,1.2-7.433,3.374-10.611
		c0.879-1.284,0.932-1.911-0.431-3.032c-10.77-8.862-20.776-18.512-29.574-29.37c-0.289-0.357-0.687-0.669-0.854-1.077
		c-0.616-1.499-0.944-3.511-0.108-4.497c0.802-0.946,2.082,0.773,3.01,1.475C200.086,16.238,203.026,17.455,205.721,20.245z
		 M226.359,60.059c2.821,0.001,6.516-1.935,6.491-3.371c-0.017-1.003-3.431-5.333-4.161-5.278c-1.001,0.076-4.314,5.606-4.381,7.118
		C224.235,60.211,225.604,59.711,226.359,60.059z"/>
	<path fill="#161717" d="M249.858,70.416c-4.336,1.971-8.376,4.599-13.126,5.649c-3.863,0.853-7.689,1.862-11.695,1.137
		c-6.03-1.092-10.494-3.997-12.213-10.269c-1.961-7.156,0.575-13.36,3.884-20.256c0.889,2.806-0.512,4.384-0.998,6.077
		c-1.16,4.032-1.978,7.911-0.164,12.048c1.803,4.113,5.039,6.444,9.107,7.039c11.543,1.688,21.164-2.597,29.469-10.395
		c1.065-1,0.814-2.039,0.631-3.269c-0.384-2.586-2.201-4.631-2.564-7.182c-0.142-0.994-0.052-2.035,0.046-3.044
		c0.059-0.613,0.239-1.357,0.989-1.461c0.673-0.093,0.942,0.608,1.076,1.076c0.742,2.586,2.801,2.377,4.688,2.104
		c2.057-0.297,3.786-1.084,4.081-3.666c0.163-1.432,0.037-3.771,1.816-3.889c2.127-0.142,1.824,2.373,2.303,3.795
		c0.725,2.152,1.166,4.407,1.622,6.64c0.949,4.643,1.896,5.786,5.513,6.408c2.896,0.498,6.462-1.452,8.003-4.626
		c0.901-1.856,2.123-3.439,3.472-4.926c2.703-2.977,5.761-2.668,7.886,0.742c1.389,2.229,2.186,4.568,1.602,7.299
		c-0.441,2.062-1.648,2.738-3.546,2.603c-2.116-0.151-4.262-0.369-6.078-1.539c-1.724-1.111-2.541-1.094-3.621,1.02
		c-2.667,5.221-9.505,6.254-13.127,2.217c-1.679-1.872-1.799-4.342-2.297-6.656c-0.476-2.207-0.981-4.408-1.704-6.62
		c-1.303,3.241-2.99,5.821-6.669,6.386c-0.826,0.127-1.143,0.803-1.058,1.668c0.57,5.749-1.743,9.976-6.744,12.811
		c-0.331,0.188-0.442,0.763-0.656,1.157L249.858,70.416z M291.113,54.437c-0.154-0.298-0.293-0.621-0.48-0.912
		c-0.626-0.978-1.537-1.256-2.602-0.908c-0.309,0.101-0.787,0.51-0.753,0.699c0.216,1.196,1.482,0.777,2.193,1.277
		C289.886,54.884,290.52,54.86,291.113,54.437z"/>
	<path fill="#161717" d="M7.848,26.053c1.092,0.71,0.777,1.838,1.264,2.558c5.063-2.237,8.854-6.05,13.094-9.219
		c0.794-0.594,1.657-1.143,0.506-2.637c-1.142-1.482-0.731-3.641-0.11-5.498c0.415-1.242,1.217-1.148,2.166-0.614
		c1.733,0.975,2.972,2.412,3.902,4.135c0.602,1.116,0.694,2.436,0.089,3.412c-0.618,0.998-1.768,0.456-2.699,0.046
		c-0.839-0.369-1.256,0.062-1.764,0.754c-2.991,4.075-6.913,7.195-11.504,9.067c-3.693,1.506-5.069,4.082-5.418,7.592
		c-0.209,2.106-0.184,4.244-0.124,6.363c0.044,1.573,1.328,2.639,2.521,2.946c1.286,0.331,1.547-1.273,1.84-2.284
		c0.168-0.582,0.33-1.034,1.167-1.308c0.712,2.83,0.494,5.532-1.378,7.732c-0.833,0.978-1.008,1.714-0.871,2.857
		c0.372,3.096,0.863,6.139,2.594,8.827c0.739,1.148,1.728,2.098,3.149,1.791c1.232-0.267,2.214-0.961,2.791-2.351
		c1.502-3.619,2.365-7.519,4.635-10.809c0.467-0.677,0.822-1.443,1.352-2.062c2.861-3.339,5.628-2.853,7.171,1.216
		c0.354,0.934,0.696,1.884,1.162,2.764c1.888,3.568,7.528,4.142,9.949,0.892c1.411-1.893-0.216-3.575-1.257-4.896
		c-1.369-1.738-1.099-3.338-0.57-5.152c0.423-1.449,1.108-0.914,1.719-0.263c4.477,4.773,2.646,14.496-3.201,17.102
		c-2.764,1.232-5.138,0.669-7.124-1.681c-1.265-1.497-2.111-3.223-2.615-5.093c-0.673-2.498-2.157-2.269-3.64-0.976
		c-2.247,1.961-3.647,4.516-4.441,7.401c-0.633,2.301-1.373,4.571-2.679,6.593c-1.705,2.638-3.776,2.818-5.996,0.531
		c-3.65-3.758-4.131-8.641-4.576-13.472c-0.128-1.39-0.397-2.369-1.577-3.217c-1.382-0.992-2.232-2.564-2.334-4.204
		C4.636,38.451,6.304,32.313,7.848,26.053z"/>
	<path fill="#161717" d="M121.154,22.827c-1.317,0.608-1.476-0.877-2.584-0.786c-0.697,2.487,0.319,4.92,0.626,7.359
		c1.327,10.565,4.172,20.955,3.578,31.74c-0.134,2.427-0.568,4.047-1.735,5.802c-0.658-0.126-0.524-0.669-0.502-1.076
		c0.509-9.672-1.81-19.027-3.166-28.491c-1.028-7.178-2.009-14.363-2.929-21.556c-0.22-1.722-0.224-3.513,1.465-5.047
		C118.459,14.507,119.569,18.765,121.154,22.827z"/>
	<path fill="#161717" d="M296.089,33.853c0.133,2.217-0.833,3.039-2.278,3.679c-6.906,3.055-13.779,6.183-20.685,9.241
		c-0.486,0.215-0.972,1.143-1.623,0.36c-0.517-0.622,0.113-1.211,0.378-1.718c0.286-0.549,0.728-1.123,1.252-1.422
		c1.587-0.904,3.187-1.839,4.888-2.481c7.282-2.748,7.686-3.222,4.521-10.362c-1.852-4.179-1.702-8.043-0.264-12.183
		c0.683-1.967-0.422-3.613-1.937-4.875c-0.557-0.464-1.306-0.693-1.878-1.144c-1.056-0.831-1.046-1.913-0.305-2.903
		c0.833-1.114,1.494,0.087,2.047,0.414c1.566,0.926,2.066,2.701,2.872,4.237c1.308-1.525,0.23-3.528,1.229-5.088
		c0.494-0.773,0.916-1.305,1.95-1.048c0.914,0.227,1.105,0.931,1.237,1.642c0.078,0.423-0.112,1.157-0.613,0.998
		c-1.082-0.344-1.957-0.766-1.944,0.979c0.016,2.188-2.003,4.481,0.373,6.546c0.625,0.543,1.331,1.063,1.761,1.745
		c0.828,1.314,0.826,2.419-1.145,2.617c-3.099,0.311-4.71,0.467-2.931,4.569c1.24,2.859,2.369,5.775,1.997,9.009
		c-0.226,1.957,0.943,1.64,2.046,1.17C289.961,36.587,292.858,35.279,296.089,33.853z"/>
	<path fill="#161717" d="M139.4,33.598c-0.754-0.17-1.207-0.504-0.769-1.329c0.618-1.166,1.485-2.004,2.726-2.604
		c15.826-7.66,31.911-14.719,48.361-20.934c0.337-0.127,0.742-0.085,1.067-0.23c0.653-0.291,1.452-0.944,1.864,0.01
		c0.368,0.852-0.259,1.432-1.176,1.828c-3.176,1.374-6.458,2.472-9.67,3.746c-13.549,5.372-26.635,11.748-39.802,17.951
		C141.094,32.462,140.272,33.068,139.4,33.598z"/>
	<path fill="#161717" d="M57.188,31.569c0.251-3.882,3.094-4.678,5.329-5.809c9.266-4.688,18.743-8.929,28.292-13.008
		c2.012-0.859,4.061-1.636,6.07-2.503c0.469-0.203,0.893-0.889,1.362-0.206c0.315,0.459,0.073,1.004-0.288,1.504
		c-0.46,0.637-1.08,0.978-1.744,1.284c-8.938,4.11-17.909,8.149-26.804,12.349C65.372,27.086,61.489,29.307,57.188,31.569z"/>
	<path fill="#161717" d="M29.034,28.712c-0.253-2.082,0.576-3.197,2.264-3.989c6.997-3.283,13.96-6.639,20.935-9.969
		c2.787-1.331,5.573-2.665,8.359-3.999c0.463-0.222,0.938-0.797,1.428-0.153c0.425,0.558-0.182,1.019-0.341,1.511
		c-0.261,0.809-1.083,0.911-1.726,1.227c-9.234,4.535-18.471,9.064-27.7,13.609C31.211,27.462,30.209,28.066,29.034,28.712z"/>
	<path fill="#161717" d="M249.784,70.493c1.021-0.577,1.664-0.652,1.056,0.828c-0.931,2.267-0.221,3.262,2.264,2.801
		c3.727-0.692,7.738-1.079,9.021-5.709c0.096-0.347,0.348-0.651,0.42-0.782c0.902,0.179,0.675,0.648,0.823,0.922
		c0.573,1.064-0.101,3.049,1.188,3.259c2.019,0.329,0.08-2.255,1.66-2.859c0.817,1.537,0.462,3.024-0.222,4.481
		c1.482,0.381,1.892-0.589,2.213-1.379c0.362-0.891,0.667-1.651,1.715-0.908c1.004,0.711,0.737,1.483-0.029,2.308
		c-0.789,0.851-1.791,1.557-2.802,1.616c-1.892,0.111-3.381,0.977-4.966,1.796c-2.205,1.14-3.951-0.239-5.377-1.534
		c-0.693-0.63-0.982-0.43-1.544-0.266c-0.874,0.254-1.746,0.666-2.632,0.706c-3.062,0.137-3.936-1.65-2.708-5.36
		C249.858,70.416,249.784,70.493,249.784,70.493z M262.904,74.905c0.917-0.862,0.917-0.862-0.729-4.434
		c-0.538,0.796-1.044,1.543-1.549,2.29c-0.126,0.257-0.756,0.396-0.297,0.771c0.27,0.221,0.697,0.099,0.912-0.289
		c0.482-0.067,1.043-0.474,1.413,0.07c0.281,0.413-0.094,0.785-0.408,1.086c-0.517,0.418-1.531,0.304-1.451,1.396
		C261.611,75.753,262.286,75.399,262.904,74.905z"/>
	<path fill="#161717" d="M264.071,29.205c0.239-0.447,0.381-0.787,0.587-1.082c0.594-0.851,0.741-2.516,2.072-2.192
		c1.561,0.38,3.235,1.284,3.713,2.968c0.382,1.347-0.536,2.61-1.453,3.676c-0.881,1.023-1.19-0.106-1.707-0.447
		c-1.656-1.093-3.269-2.148-4.336,0.697c-0.333,0.889-0.999,1.772-1.964,0.624c-1.032-1.228-4.244-1.15-2.898-3.761
		C259.658,26.632,258.966,26.147,264.071,29.205z"/>
	<path fill="#161717" d="M141.863,74.937c-0.234,0.317-0.438,0.625-0.672,0.907c-0.675,0.81-0.649,2.623-1.826,2.439
		c-1.321-0.207-2.756-1.095-3.679-2.108c-1.466-1.608,0.673-2.694,1.122-4.022c0.478-1.413,1.649-0.561,2.231-0.064
		c1.872,1.595,3.282,1.957,4.279-0.846c0.422-1.184,1.339-1.189,2.088-0.243c0.919,1.161,3.434,1.142,2.718,3.504
		c-0.922,3.044-1.694,3.284-4.421,1.532C143.108,75.653,142.488,75.309,141.863,74.937z"/>
	<path fill="#161717" d="M29.984,34.278c-0.589,1.426-0.937,2.837-2.201,3.605c-1.172,0.713-1.658-0.573-2.252-1.065
		c-1.392-1.153-2.158-0.611-2.616,0.744c-0.589,1.746-1.598,2.201-3.09,1.172c-1.294-0.893-3.297-1.263-2.032-3.866
		c1.048-2.157,1.736-3.085,3.809-1.119c1.603,1.521,2.142-0.263,2.886-1.178c0.577-0.711,0.81-2.09,2.189-1.195
		C27.944,32.199,29.476,32.778,29.984,34.278z"/>
	<path fill="#161717" d="M269.068,77.55c3.741-1.577,7.464-3.197,11.229-4.713c2.213-0.891,3.992-2.283,5.214-4.287
		c0.718-1.178,1.997-1.585,2.905-2.494c0.494-0.496,1.707-0.728,2.154,0.247c0.708,1.545,1.523,3.154,0.493,4.932
		c-0.602,1.038-1.238,0.767-2.047,0.269c-1.938-1.191-3.206-0.862-5.007,0.943C280.043,76.422,274.642,77.437,269.068,77.55z"/>
	<path fill="#161717" d="M38.181,65.054c-0.665,1.178-0.694,2.714-1.842,3.601c-1.106,0.854-1.819-0.251-2.522-0.786
		c-1.526-1.163-2.184-0.363-2.757,0.992c-0.511,1.209-1.28,2.141-2.61,1.002c-1.128-0.966-3.579-1.1-2.386-3.693
		c1.459-3.171,1.581-3.298,4.339-1.262c1.707,1.261,1.752-0.403,2.258-1.162c0.482-0.723,0.632-1.731,1.914-1.357
		C35.917,62.782,38.163,64.378,38.181,65.054z"/>
	<path fill="#161717" d="M231.517,24.456c-2.118,4.254-6.991,4.313-10.119,7.046c0.067-1.619,0.877-2.623,1.942-3.51
		c-1.128-0.905-3.081-1.512-2.642-2.894c0.701-2.206,1.791-4.458,4.048-5.681c0.968-0.524,1.581,0.151,1.999,0.892
		c0.522,0.926,0.658,1.909-0.02,2.864c-0.645,0.909-1.246,0.581-1.734-0.109c-0.594-0.839-1.131-0.483-1.524,0.079
		c-0.656,0.936,0.357,1.088,0.823,1.317C226.636,25.617,228.983,25.372,231.517,24.456z"/>
	<path fill="#161717" d="M207.621,21.313c0.625-1.231,1.013-2.166,2.265-2.749c6.266-2.924,12.467-5.987,18.692-8.998
		c0.706-0.342,1.659-1.141,2.16-0.343c0.564,0.899-0.391,1.64-1.224,2.044c-5.48,2.659-10.963,5.314-16.469,7.918
		C211.374,19.976,209.91,21.349,207.621,21.313z"/>
	<path fill="#161717" d="M66.031,41.134c0.197-1.757,0.69-2.918,1.743-3.457c5.137-2.625,10.336-5.129,15.736-7.786
		c0.021,1.952-0.711,2.841-2.029,3.489C76.452,35.858,71.457,38.404,66.031,41.134z"/>
	<path fill="#161717" d="M173.233,29.567c0.242-2.251,0.38-3.98,0.631-5.693c0.144-0.981,0.382-2.076,1.633-2.198
		c0.761-0.074,1.468,0.359,1.637,1.163c0.255,1.219-0.17,1.907-1.589,1.871c-1.032-0.026-0.566,0.93-0.695,1.469
		c-0.559,2.333,0.05,4.918-1.405,7.127c-1.076-0.414-1.008-1.319-1.277-2.058c-0.497-1.364-0.943-2.784-2.858-2.791
		c-0.488-0.002-1.007-0.419-1.454-0.728c-1.276-0.882-0.975-2.298-0.462-3.203c0.568-1.001,1.584-0.156,2.359,0.293
		C171.42,25.785,171.821,27.704,173.233,29.567z"/>
	<path fill="#161717" d="M41.954,26.983c0.551,1.016,0.839,2.058,0.826,3.197c-0.008,0.711-0.141,1.739,0.902,1.671
		c1.132-0.075,1.534-1.149,1.204-2.068c-0.473-1.318-0.636-2.541-0.138-4.345c1.397,2.138,0.768,4.956,3.246,6.04
		c1.178-2.116-2.176-4.009,0.018-6.044c1.166,1.449,1.373,3.223,1.896,4.833c0.219,0.676-0.21,1.613-0.481,2.384
		c-0.33,0.942-1.536,1.437-1.977,0.921c-1.6-1.871-6.119,3.634-5.893-2.405C41.611,29.77,40.526,28.29,41.954,26.983z"/>
	<path fill="#161717" d="M143.18,17.926c0.222-1.624,0.443-3.249,0.668-4.873c0.149-1.077,0.576-1.983,1.749-2.187
		c0.981-0.171,1.613,0.255,1.628,1.345c0.013,0.945-0.134,1.257-1.274,0.866c-1.563-0.536-1.518,0.874-1.496,1.82
		c0.045,1.873-0.423,3.636-0.941,5.393c-0.136,0.459-0.127,1.201-0.948,1.112c-0.511-0.056-0.812-0.388-0.922-0.887
		c-0.508-2.311-1.174-4.426-3.57-5.659c-0.941-0.484-0.892-2.037-0.156-2.729c0.912-0.857,1.829-0.109,2.494,0.782
		C141.549,14.432,142.044,16.263,143.18,17.926z"/>
	<path fill="#161717" d="M91.617,19.941c1.267,1.891,0.647,4.388,3.041,5.441c0.529-1.817-1.352-3.313-0.291-5.284
		c1.219,1.71,1.812,3.364,1.722,5.267c-0.004,0.092-0.017,0.185-0.041,0.274c-0.299,1.113-1.782,2.089-2.063,1.698
		c-1.579-2.201-5.341,2.902-5.912-1.879c-0.181-1.516-0.522-3.007-0.027-4.876c1.357,1.125,0.924,2.531,1.332,3.608
		c0.196,0.519,0.143,1.122,0.922,1.064c0.811-0.061,1.119-0.647,1.086-1.327C91.326,22.718,90.678,21.499,91.617,19.941z"/>
	<path fill="#161717" d="M72.241,16.302c-0.157-2.737,0.276-4.485,1.122-6.148c0.381-0.748,0.921-1.272,1.734-0.917
		c0.706,0.308,0.993,1.112,0.957,1.842c-0.062,1.233-0.733,0.781-1.527,0.567c-1.323-0.356-1.215,0.811-1.167,1.559
		c0.111,1.702-0.388,3.272-0.871,4.846c-0.141,0.458-0.19,1.259-0.96,1.073c-0.353-0.086-0.833-0.6-0.853-0.944
		c-0.119-2.018-1.104-3.307-2.869-4.261c-0.69-0.373-1.542-1.216-0.842-2.294c0.306-0.471,0.041-1.405,1.058-1.347
		c1.008,0.057,1.381,0.858,1.79,1.543C70.547,13.049,71.185,14.336,72.241,16.302z"/>
	<path fill="#161717" d="M266.483,7.007c-0.027,2.111,0.748,3.052,1.696,4.033c1.666,1.723,0.614,4.824-1.726,5.289
		c-1.461,0.291-2.508-0.275-2.613-1.947C263.679,11.815,264.824,9.727,266.483,7.007z"/>
	<path fill="#161717" d="M93.917,37.328c-1.423,1.022-0.834,3.461-2.94,3.662c-1.148,0.109-4.166-2.879-3.682-3.546
		c0.824-1.138,0.64-3.502,2.689-3.224C91.661,34.447,92.887,35.842,93.917,37.328z"/>
	<path fill="#161717" d="M252.753,39.339c-0.642,0.953-0.572,3.237-2.33,2.833c-1.496-0.344-3.827-1.219-3.597-3.372
		c0.127-1.187,0.664-3.577,2.498-3.183C250.775,35.928,252.994,36.618,252.753,39.339z"/>
	<path fill="#161717" d="M171.232,73.874c-0.591,1.281-0.42,3.053-2.197,3.475c-0.996,0.237-4.212-2.503-3.789-3.082
		c0.846-1.156,0.469-3.595,2.493-3.387C169.202,71.03,170.894,71.865,171.232,73.874z"/>
	<path fill="#161717" d="M195.087,27.348c0.233,2.127-1.307,2.386-2.959,2.504c-1.691,0.12-2.428-0.802-2.182-2.348
		c0.293-1.837,0.395-3.927,2.247-4.953C192.942,22.135,195.106,25.669,195.087,27.348z"/>
	<path fill="#161717" d="M130.506,35.747c-1.023,0.857-0.807,3.58-2.419,3.163c-1.289-0.334-3.833-1.075-3.606-3.367
		c0.127-1.286,0.572-2.968,2.174-3.458C127.546,31.812,130.581,34.713,130.506,35.747z"/>
	<path fill="#161717" d="M155.462,79.103c-0.56-0.292-0.573-0.81-0.403-1.199c1.106-2.542,0.317-4.822-0.889-7.056
		c-0.476-0.882-1.054-1.719-1.442-2.638c-0.413-0.981-0.327-2.314,0.504-2.716c1.028-0.497,1.441,0.867,1.874,1.59
		c1.995,3.334,2.001,6.983,1.435,10.668C156.461,78.277,156.248,79.023,155.462,79.103z"/>
	<path fill="#161717" d="M155.871,27.016c0.873,1.733-0.044,2.506-0.267,3.421c-0.259,1.066-0.496,2.142-0.647,3.227
		c-0.126,0.904-0.284,1.903,0.621,2.542c1.312,0.926,1.3-1.132,2.468-1.139c0.13,1.465-0.497,2.668-1.046,3.819
		c-0.305,0.64-1.067,1.053-1.9,0.781c-1.199-0.392-1.685-1.344-1.791-2.511C152.993,33.662,154.283,30.591,155.871,27.016z"/>
	<path fill="#161717" d="M90.487,73.639c-0.309,1.046-0.455,1.924-0.827,2.693c-0.448,0.925-0.628,2.496-2.016,2.204
		c-1.453-0.305-2.083-1.663-2.099-3.164c-0.024-2.356,1.36-4.296,1.969-6.468c0.281-1.003,0.838-1.929,1.499-3.401
		c0.83,2.129-0.294,3.375-0.677,4.718c-0.173,0.607-0.449,1.188-0.717,1.763c-0.491,1.055-0.857,2.213,0.253,2.978
		C89.215,75.887,89.054,73.744,90.487,73.639z"/>
	<path fill="#161717" d="M154.743,9.983c1.019,0.774,1.535,1.35,2.179,1.617c1.323,0.549,2.255,1.366,1.889,2.849
		c-0.428,1.734-1.767,2.683-3.467,3.048c-0.951,0.204-1.449-0.117-1.524-1.267C153.688,14.184,154.421,12.358,154.743,9.983z"/>
	<path fill="#161717" d="M72.538,53.269c0.624,2.549-0.941,4.141-1.112,6.047c-0.083,0.918-0.581,1.855,0.44,2.483
		c1.046,0.644,1.171-0.921,2.066-0.967c0.109,0.202,0.372,0.47,0.316,0.617c-0.589,1.549-0.751,4.122-2.888,3.621
		c-2.199-0.516-2.042-2.904-1.599-4.907C70.268,57.874,70.811,55.611,72.538,53.269z"/>
	<path fill="#161717" d="M129.223,11.181c0.568,2.514-0.872,4.251-0.894,6.199c-0.011,0.951-0.524,2.11,0.611,2.774
		c1.261,0.738,0.872-1.525,1.984-1.162c0.758,1.785-0.231,3.146-1.202,4.435c-0.352,0.467-1.01,0.141-1.514-0.139
		c-1.666-0.923-1.752-2.507-1.562-4.073C126.972,16.524,127.926,14.015,129.223,11.181z"/>
	<path fill="#161717" d="M208.876,73.734c0,0.383-0.012,0.655,0.002,0.926c0.091,1.723-0.819,3.128-2.339,3.246
		c-1.544,0.119-1.947-1.739-1.943-2.889c0.011-3.152,0.935-6.114,2.726-8.753c0.311,2.072-0.576,3.882-1.052,5.767
		c-0.226,0.895-0.161,1.702,0.464,2.318C207.782,75.379,207.834,73.366,208.876,73.734z"/>
	<path fill="#161717" d="M113.118,55.541c0.248,2.138-0.629,3.961-1.228,5.848c-0.289,0.91-0.486,1.761,0.319,2.542
		c1.004,0.974,1.023-1.099,1.974-0.562c0,0.237,0.068,0.511-0.011,0.733c-0.484,1.368-0.276,3.687-2.425,3.291
		c-1.937-0.357-1.892-2.732-1.656-4.116C110.554,60.555,111.608,57.922,113.118,55.541z"/>
	<path fill="#161717" d="M46.931,80.796c-1.256-0.503-0.47-1.403-0.159-1.751c0.909-1.016,2.189-1.556,3.42-2.15
		c1.707-0.824,3.342-1.798,5.033-2.657c0.574-0.292,1.318-1.183,1.836-0.155c0.436,0.866-0.203,1.443-1.079,1.863
		c-2.444,1.17-4.843,2.436-7.243,3.693C48.103,79.972,47.524,80.412,46.931,80.796z"/>
	<path fill="#161717" d="M248.536,7.619c0.197,1.601-0.367,2.608-0.766,3.654c-0.273,0.718-0.403,1.601,0.143,2.105
		c0.809,0.747,1.091-0.716,1.919-0.597c0.246,1.213-0.178,2.276-1.254,2.961c-0.529,0.337-1.272,0.263-1.797-0.258
		c-0.993-0.984-1.001-2.264-0.507-3.351C246.906,10.743,246.851,8.964,248.536,7.619z"/>
	<path fill="#161717" d="M265.001,80.185c0.395-1.438,0.634-2.307,0.873-3.176c0.231,0.103,0.602,0.15,0.671,0.319
		C267,78.44,266.55,79.231,265.001,80.185z"/>
	<path fill="#ECECEC" d="M96.792,82.058c0.371,0.014,0.807,0.063,0.717,0.541c-0.054,0.29-0.35,0.643-0.625,0.757
		c-0.368,0.153-0.696-0.079-0.691-0.538C96.197,82.432,96.353,82.124,96.792,82.058z"/>
	<path fill="#161717" d="M263.378,80.784c0.321-0.821,0.886-1.088,1.543-1.189c0.036-0.006,0.258,0.473,0.188,0.641
		C264.818,80.931,264.269,81.109,263.378,80.784z"/>
	<path fill="#ECECEC" d="M168.069,46.942c3.004,0.129,5.506-0.332,8.126,0.409C172.057,51.182,171.938,51.181,168.069,46.942z"/>
	<path fill="#ECECEC" d="M60.204,45.729c-1.799,0.741-3.21,1.109-4.652-0.116C57.176,43.605,58.617,44.177,60.204,45.729z"/>
	<path fill="#ECECEC" d="M83.832,52.214c-0.932,0.439-1.791,0.453-2.518,0.102c-0.588-0.284-1.919-0.214-1.439-1.372
		c0.364-0.878,1.271-0.762,2.109-0.286C82.652,51.038,83.592,51.008,83.832,52.214z"/>
	<path fill="#FCFBFB" d="M226.359,60.059c-0.756-0.349-2.124,0.152-2.05-1.531c0.067-1.512,3.38-7.042,4.381-7.118
		c0.73-0.055,4.143,4.275,4.161,5.278C232.874,58.125,229.179,60.061,226.359,60.059z"/>
	<path fill="#ECECEC" d="M291.113,54.437c-0.593,0.423-1.227,0.448-1.642,0.157c-0.712-0.5-1.977-0.082-2.193-1.277
		c-0.034-0.189,0.444-0.598,0.753-0.699c1.066-0.348,1.977-0.071,2.602,0.908C290.821,53.816,290.959,54.139,291.113,54.437z"/>
	<path fill="#ECECEC" d="M260.627,72.76c0.506-0.747,1.011-1.494,1.549-2.29c1.646,3.573,1.646,3.573,0.729,4.434
		c-0.219-0.169-0.438-0.338-0.657-0.507c0.313-0.301,0.688-0.673,0.408-1.086c-0.371-0.544-0.932-0.137-1.413-0.07
		C261.037,73.082,260.832,72.921,260.627,72.76z"/>
	<path fill="#ECECEC" d="M262.904,74.905c-0.618,0.494-1.294,0.848-2.107,0.889c-0.079-1.092,0.934-0.978,1.451-1.396
		C262.467,74.567,262.686,74.736,262.904,74.905z"/>
	<path fill="#ECECEC" d="M261.242,73.243c-0.215,0.388-0.642,0.509-0.912,0.289c-0.458-0.375,0.171-0.514,0.297-0.771
		C260.832,72.921,261.037,73.082,261.242,73.243z"/>
</g>
</svg>
