<?xml version="1.0" encoding="utf-8"?>
<!-- Generator: Adobe Illustrator 17.0.0, SVG Export Plug-In . SVG Version: 6.00 Build 0)  -->
<!DOCTYPE svg PUBLIC "-//W3C//DTD SVG 1.1//EN" "http://www.w3.org/Graphics/SVG/1.1/DTD/svg11.dtd">
<svg version="1.1" id="Layer_2" xmlns="http://www.w3.org/2000/svg" xmlns:xlink="http://www.w3.org/1999/xlink" x="0px" y="0px"
	 width="139.667px" height="132.667px" viewBox="57.167 37.167 139.667 132.667"
	 enable-background="new 57.167 37.167 139.667 132.667" xml:space="preserve">
<g>
	<g>
		<path fill="#F4F4F4" d="M74.478,116.256c9.379-0.48,18.107-3.304,26.479-7.38c0.755-0.368,1.855-0.657,1.764-1.803
			c-0.099-1.248-1.224-1.669-2.175-2.063c-1.577-0.653-3.286-0.366-4.94-0.481c-3.641-0.253-5.226-2.158-4.544-5.69
			c0.502-2.599,1.614-5.094,4.294-5.987c2.9-0.966,4.9,0.983,6.546,3.044c5.505,6.896,3.431,15.171-4.585,19.055
			c-1.84,0.892-4.383,0.845-5.349,3.059c-1.325,3.037-2.723,6.107-2.594,9.545c0.143,3.784,2.458,5.115,5.781,3.321
			c2.173-1.173,3.742-3.041,5.343-4.865c3.393-3.866,6.518-7.982,10.565-11.237c4.604-3.704,9.34-5.207,15.049-2.096
			c4.136,2.253,5.683,1.467,8.945-3.037c0.512-0.707,0.805-1.991,1.748-1.876c1.363,0.166,0.43,1.418,0.543,2.171
			c0.267,1.766,1.504,2.216,2.949,2.124c2.114-0.135,1.066-1.533,0.979-2.629c-0.056-0.712,0.253-1.477,0.504-2.18
			c0.139-0.389,0.445-0.931,0.763-0.999c0.68-0.146,0.992,0.471,1.225,1.024c1.064,2.524-0.06,7.101-2.207,8.787
			c-0.962,0.756-2.425,1.778-3.273,1.052c-2.89-2.474-4.699-0.951-7,0.958c-2.243,1.86-4.979,1.123-7.23-0.359
			c-3.946-2.598-7.49-1.504-10.962,0.838c-4.465,3.012-7.646,7.29-11.073,11.332c-2.222,2.621-4.146,5.735-8.193,5.851
			c-0.629,0.018-1.057,0.422-1.455,0.932c-2.444,3.133-2.944,11.427-0.832,14.836c1.447,2.335,3.561,3.734,6.295,3.954
			c9.723,0.781,17.47-4.01,25.055-9.111c1.609-1.082,0.312-1.733-0.752-2.031c-2.037-0.57-4.116-0.99-6.16-1.536
			c-5.389-1.44-6.64-3.594-5.043-9.009c1.639-5.556,4.758-10.148,9.672-13.298c2.862-1.835,5.316-0.693,5.681,2.363
			c0.297,2.493-0.736,3.266-3.117,2.213c-0.935-0.414-1.769-0.434-2.563,0.099c-1,0.671-2.039,1.344-2.861,2.207
			c-2.168,2.279-5.489,4.622-4.832,7.748c0.63,2.994,4.736,2.505,7.384,3.389c2.381,0.795,5.323,0.892,5.972,4.086
			c0.635,3.122-0.655,5.672-2.965,7.667c-6.314,5.453-13.523,9.238-21.795,10.518c-7.841,1.213-12.892-3.184-13.306-11.095
			c-0.217-4.148,0.5-8.137,2.103-11.967c0.454-1.084,1.321-2.109,0.161-3.297c-3.927-4.026-2.892-8.528-1.313-13.137
			c0.3-0.875,1.468-1.901,0.396-2.814c-0.714-0.607-1.713,0.062-2.563,0.321c-5.242,1.597-10.554,2.485-16.083,2.438
			c-10.968-0.095-14.857-9.293-10.661-18.576c0.234-0.519,0.52-1.203,1.17-0.94c0.462,0.187,0.035,0.783-0.053,1.2
			c-1.879,8.896,0.399,12.069,9.479,13.16C72.047,116.201,73.264,116.194,74.478,116.256z M98.404,99.115
			c-0.318-0.891-1.153-1.23-1.971-1.52c-0.717-0.255-1.665-0.329-1.828,0.571c-0.228,1.258,1.02,1.211,1.795,1.402
			C97.036,99.724,97.819,100.066,98.404,99.115z"/>
		<path fill="#F4F4F4" d="M105.601,94.242c0.184-3.595,1.098-7.693,3.295-11.431c0.275-0.468,0.52-1.391,1.152-1.098
			c0.596,0.277,0.193,1.091-0.043,1.632c-1.211,2.782-2.278,5.608-2.444,8.677c-0.382,7.05,3.621,11.222,10.761,10.775
			c8.134-0.509,14.976-4.465,21.571-8.853c2.072-1.379,0.802-2.165-0.695-2.6c-2.321-0.674-4.725-1.074-7.02-1.82
			c-3.704-1.204-4.493-2.523-4.133-6.435c0.587-6.368,4.517-10.343,9.688-13.409c1.921-1.139,3.331-0.566,4.682,1.126
			c4.526,5.665,6.152,5.989,12.905,2.891c0.687-0.315,1.363-0.652,2.045-0.978c0.536-0.256,1.253-0.451,1.191-1.168
			c-0.073-0.838-0.897-0.575-1.404-0.637c-3.453-0.424-6.908-0.842-10.37-1.179c-2.808-0.274-2.743-1.568-1.504-3.57
			c0.681-1.101,1.607-1.814,2.707-2.324c6.417-2.979,11.017-7.803,14.633-13.801c1.105-1.833,1.807-4.974,5.05-4.015
			c1.767,0.523,2.719,6.528,1.679,8.878c-0.105,0.237-0.293,0.557-0.499,0.607c-0.599,0.145-0.719-0.383-0.841-0.796
			c-0.215-0.725-0.295-1.501-0.588-2.189c-0.846-1.986-2.124-2.11-3.349-0.431c-1.154,1.582-2.059,3.347-3.071,5.033
			c-1.247,2.078-2.407,4.248-4.253,5.855c-2.569,2.237-0.877,2.623,1.163,2.932c5.69,0.864,11.413,1.406,17.156,1.784
			c1.101,0.073,3.059-0.484,3.028,0.979c-0.035,1.621-0.766,3.61-3.01,3.999c-0.148,0.026-0.302,0.041-0.452,0.035
			c-7.752-0.322-14.448,2.822-20.978,6.446c-4.874,2.705-9.72,2.589-12.784-2.982c-1.163-2.114-2.737-2.193-4.493-0.881
			c-2.504,1.871-6.417,3.414-6.033,6.751c0.368,3.198,4.539,2.666,7.156,3.543c2.507,0.841,5.686,0.897,6.311,4.313
			c0.606,3.313-0.971,5.869-3.444,7.926c-5.797,4.822-12.324,8.23-19.716,9.805C111.153,109.655,105.378,104.737,105.601,94.242z"/>
		<path fill="#F4F4F4" d="M181.281,132.122c-0.698-10.113-1.396-20.226-2.097-30.338c-0.031-0.452-0.153-0.906-0.121-1.352
			c0.096-1.355,0.192-3.221,1.528-3.417c1.082-0.159,1.31,1.771,1.75,2.866c0.507,1.263,1.19,2.504,1.408,3.819
			c0.192,1.161,2.465,3.055-0.825,3.579c-0.164,0.026-0.139,1.677-0.086,2.565c0.446,7.553,0.951,15.103,1.371,22.658
			c0.238,4.277-0.068,8.514-2.258,12.328c-2.904,5.058-7.832,5.192-11.04,0.367c-0.389-0.585-0.535-1.742-1.465-1.184
			c-1.474,0.884-3.526,1.121-3.991,3.322c-0.568,2.69-1.416,5.316-3.534,7.226c-6.016,5.427-12.684,9.782-20.611,11.874
			c-4.531,1.196-9.112,2.204-13.679,3.26c-0.461,0.107-1.213,0.503-1.337-0.369c-0.039-0.276,0.484-0.781,0.854-0.943
			c3.736-1.64,7.494-3.231,11.247-4.835c6.963-2.977,13.798-6.2,20.091-10.462c0.876-0.593,1.764-1.19,2.544-1.899
			c1.091-0.991,2.735-1.972,2.102-3.663c-0.653-1.743-2.405-0.463-3.637-0.615c-2.239-0.276-4.667,0.07-5.89-2.48
			c-1.052-2.194-0.145-4.173,0.974-5.987c2.381-3.859,5.777-4.267,8.276-0.492c2.156,3.256,4.031,3.418,6.817,1.232
			c1.905-1.495,3.052-1.545,3.326,1.457c0.217,2.373,2.254,3.103,4.423,2.799c2.059-0.288,3.759-1.201,4.023-3.609
			C181.727,137.25,181.366,134.692,181.281,132.122z M157.562,140.062c-0.434-0.006-1.173,0.121-1.14,0.784
			c0.074,1.484,1.412,1.147,2.314,1.274c0.529,0.074,1.361-0.206,1.118-0.902C159.556,140.364,158.689,139.993,157.562,140.062z"/>
		<path fill="#F4F4F4" d="M84.625,86.635c-9.47,0.905-15.926-9.5-12.749-18.928c0.135-0.4,0.444-1.105,0.578-1.083
			c0.85,0.137,0.462,0.877,0.423,1.332c-0.219,2.573-0.503,5.145,0.78,7.55c1.937,3.633,5.053,5.749,9.073,5.964
			c10.016,0.536,18.186-3.817,25.276-10.409c2.519-2.342,0.504-5.118-0.205-7.625c-0.526-1.859-1.8-3.54-0.969-5.638
			c0.517-1.305,1.01-2.427,2.214-0.497c0.928,1.487,2.326,1.883,3.931,1.597c1.644-0.293,3.052-0.839,1.869-2.976
			c-0.983-1.778-0.58-3.489,0.365-5.127c0.092-0.16,0.694-0.26,0.777-0.158c1.195,1.474,1.558,3.236,1.485,5.069
			c-0.145,3.63-0.818,7.042-4.927,8.27c-1.794,0.536-1.839,1.957-1.782,3.242c0.286,6.487-3.473,10.333-8.493,13.426
			C96.935,83.931,91.419,86.675,84.625,86.635z"/>
		<path fill="#F4F4F4" d="M152.044,144.704c-0.212,4.472-1.466,8.123-4.871,10.672c-6.426,4.81-13.003,9.335-21.103,10.977
			c-3.846,0.78-7.641,1.809-11.474,2.661c-0.533,0.118-1.147-0.13-1.723-0.209c0.104-0.703,0.698-0.981,1.216-1.212
			c2.343-1.046,4.711-2.038,7.076-3.035c7.101-2.992,14.181-6.033,20.763-10.088c1.67-1.029,3.342-2.083,4.878-3.297
			c1.242-0.981,3.48-1.697,3.035-3.533c-0.527-2.173-2.964-1.655-4.673-1.826c-2.509-0.251-4.93-0.45-5.575-3.524
			c-0.495-2.355,1.373-6.091,3.658-7.331c2.011-1.091,3.816-0.712,5.285,0.992C150.785,138.561,151.952,141.613,152.044,144.704z
			 M143.895,139.048c-0.525,0.166-1.351,0.167-1.147,0.97c0.285,1.127,1.37,0.945,2.207,0.931c0.444-0.007,1.39,0.135,1.126-0.781
			C145.79,139.161,144.838,139.022,143.895,139.048z"/>
		<path fill="#F4F4F4" d="M188.152,119.734c-0.829-12.265-1.725-25.535-2.627-38.804c-0.051-0.745-0.313-1.518-0.183-2.224
			c0.21-1.143,0.225-2.827,1.607-2.916c0.917-0.059,1.134,1.562,1.519,2.504c0.572,1.398,1.361,2.787,1.527,4.241
			c0.11,0.967,2.903,3.192-0.964,3.207c-0.477,0.002-0.139,1.345-0.09,2.054c0.617,8.895,1.234,17.79,1.909,26.681
			c0.279,3.674-0.23,7.229-1.299,10.725c-0.162,0.528-0.121,1.459-0.817,1.393c-1.167-0.111-0.541-1.137-0.566-1.771
			C188.114,123.465,188.152,122.102,188.152,119.734z"/>
		<path fill="#F4F4F4" d="M144.414,39.941c2.548,0.213,5.459-0.318,6.334,1.537c1.074,2.274-1.685,3.861-3.012,5.602
			c-0.445,0.584-1.085,1.093-1.741,1.43c-1.998,1.027-4.086,1.829-6.358,2.024c0.719-2.288,3.177-2.225,4.676-3.459
			c0.571-0.471,1.685-1.02,1.626-1.382c-0.19-1.157-1.364-0.824-2.21-0.89c-0.602-0.047-1.237,0.098-1.811-0.039
			c-1.173-0.279-3.143,0.857-3.347-1.087c-0.157-1.495,1.155-2.787,2.718-3.256C142.428,40.081,143.659,40.049,144.414,39.941z"/>
		<path fill="#F4F4F4" d="M113.57,163.938c0.032,1.954-1.782,3.111-3.551,2.178c-1.285-0.678-1.881-0.636-3.017,0.429
			c-1.784,1.673-2.981-0.526-3.993-1.459c-1.084-0.999,0.115-2.205,0.729-3.207c0.231-0.377,0.773-0.909,1.062-0.505
			c2.297,3.216,6.16-2.426,8.264,1.505C113.272,163.268,113.445,163.675,113.57,163.938z"/>
		<path fill="#F4F4F4" d="M91.237,50.353c-1.293-1.456-1.962-3.025-0.411-4.771c0.718-0.808,1.509-1.603,2.707-1.215
			c1.051,0.34,1.183,1.323,1.094,2.248c-0.101,1.052-0.351,2.062,0.375,3.032c0.397,0.53,0.299,1.495-0.194,1.618
			c-4.426,1.105-7.001,5.55-11.574,6.352c-0.424,0.074-1.044,0.486-1.193,0.07c-0.218-0.609,0.514-0.925,0.965-1.208
			c2.178-1.367,4.399-2.664,6.562-4.053C90.305,51.952,91.153,51.473,91.237,50.353z"/>
		<path fill="#F4F4F4" d="M165.222,79.671c1.733-0.261,2.811,2.523,4.043,0.96c1.657-2.101,2.652-0.872,4.011-0.007
			c1.546,0.985,1.225,2.137,0.523,3.443c-0.788,1.467-1.766,1.35-2.873,0.435c-1.101-0.91-1.821-0.845-2.952,0.293
			c-1.768,1.78-2.945-0.462-4.008-1.322c-1.174-0.949,0.009-2.164,0.564-3.162C164.717,79.976,165.122,79.76,165.222,79.671z"/>
		<path fill="#F4F4F4" d="M156.719,90.255c-0.297,0.535-0.712,1.321-1.165,2.085c-0.291,0.491-1.013,0.486-1.17,0.237
			c-2.119-3.364-5.284,2.19-7.608-0.976c-0.917-1.249-0.859-2.007-0.306-3.162c0.709-1.48,1.648-1.55,2.884-0.677
			c0.975,0.689,1.656,1.361,2.923-0.105C153.465,86.283,156.657,88.076,156.719,90.255z"/>
		<path fill="#F4F4F4" d="M126.592,94.769c-0.749,0.978-0.547,3.537-3.169,2.018c-1.146-0.664-1.964-1.549-3.292,0.167
			c-1.454,1.88-2.571-0.404-3.667-1.071c-1.501-0.914-0.43-2.129,0.067-3.142c0.839-1.712,1.951-0.868,2.934-0.158
			c0.982,0.71,1.541,0.67,2.617-0.203C123.626,91.126,126.572,92.734,126.592,94.769z"/>
		<path fill="#F4F4F4" d="M168.451,107.115c-0.004-0.029-0.083-0.857,0.531-0.98c0.562-0.113,0.94,0.657,1.076,1.248
			c0.167,0.728,0.195,1.487,0.348,2.22c0.091,0.436,0.311,0.966,0.842,0.887c0.833-0.124,0.671-0.781,0.497-1.34
			c-0.329-1.055-1.325-2.813-0.077-2.974c1.228-0.159,1.546,2.027,1.614,3.307c0.129,2.437-0.507,4.138-3.665,3.073
			c-1.028-0.347-2.148,2.002-3.544,0.472c-1.204-1.319-0.935-3.112-1.243-4.708c-0.146-0.759,0.051-1.637,1.046-1.566
			c0.699,0.049,0.63,0.853,0.656,1.425c0.02,0.45-0.008,0.904,0.041,1.35c0.065,0.589,0.135,1.277,0.901,1.318
			c0.907,0.048,1.345-0.622,1.405-1.401C168.924,108.869,168.679,108.271,168.451,107.115z"/>
		<path fill="#F4F4F4" d="M124.006,48.16c-0.604,0.223-0.842-0.214-0.949-0.634c-0.53-2.078-1.145-3.972-3.538-4.781
			c-0.932-0.315-0.943-1.436-0.246-2.292c0.738-0.907,1.588-0.788,2.331-0.096c0.54,0.502,0.989,1.141,1.345,1.792
			c0.768,1.408,1.369,1.727,1.782-0.161c0.231-1.056,0.614-2.046,1.434-2.755c0.823-0.711,1.691-0.61,2.282,0.334
			c0.422,0.674,0.456,1.938-0.244,1.911c-3.761-0.144-2.258,3.16-3.27,4.767C124.57,46.823,124.801,47.745,124.006,48.16z"/>
		<path fill="#F4F4F4" d="M122.709,64.496c-0.584,0.06-1.119-0.058-1.141-0.509c-0.018-0.369,0.298-0.938,0.626-1.107
			c1.204-0.621,2.455-1.161,3.723-1.643c4.236-1.609,8.471-3.222,12.745-4.725c0.739-0.26,1.981-1.229,2.369-0.252
			c0.525,1.321-1.064,1.537-1.961,1.895c-2.805,1.119-5.651,2.137-8.469,3.225C127.926,62.414,125.266,63.485,122.709,64.496z"/>
		<path fill="#F4F4F4" d="M177.618,93.488c-0.17,0.781-0.698,1.02-1.276,1.244c-5.597,2.165-11.189,4.341-16.782,6.515
			c-0.552,0.215-1.253,0.588-1.569-0.092c-0.252-0.542,0.223-1.207,0.777-1.439c2.624-1.097,5.264-2.16,7.924-3.169
			c3.085-1.17,6.192-2.28,9.298-3.395C176.597,92.935,177.377,92.323,177.618,93.488z"/>
		<path fill="#F4F4F4" d="M147.571,108.728c0.123-0.171,0.403-0.702,0.815-1.098c0.545-0.525,1.187-0.229,1.603,0.184
			c0.631,0.628,1.261,1.32,1.661,2.102c0.708,1.383,1.114,1.56,1.648-0.09c0.365-1.127,0.635-2.363,1.725-3.101
			c0.753-0.51,1.419-0.347,1.946,0.359c0.484,0.649,0.769,1.777-0.042,1.881c-3.482,0.448-2.675,3.433-3.516,5.447
			c-0.227,0.542-0.577,1.033-0.871,1.547c-0.321-0.493-0.72-0.952-0.949-1.484c-0.702-1.63-0.993-3.529-3.275-3.896
			C147.832,110.501,147.367,109.846,147.571,108.728z"/>
		<path fill="#F4F4F4" d="M161.933,120.076c0.022,0.8-0.653,0.965-1.174,1.171c-5.607,2.209-11.226,4.385-16.837,6.584
			c-0.598,0.234-1.315,0.391-1.548-0.24c-0.203-0.549,0.312-1.177,0.902-1.4c5.912-2.243,11.836-4.454,17.753-6.683
			C161.615,119.287,161.804,119.61,161.933,120.076z"/>
		<path fill="#F4F4F4" d="M73.506,91.537c0.219,1.21,0.16,1.878-0.252,1.887c-3.709,0.079-2.641,3.357-3.599,5.265
			c-0.264,0.526-0.443,1.449-0.778,1.507c-0.618,0.106-0.871-0.694-1.104-1.238c-0.633-1.479-0.8-3.17-2.816-3.768
			c-1.415-0.42-1.763-1.683-0.67-2.854c1.056-1.131,1.915-0.21,2.643,0.561c0.406,0.43,0.7,0.981,0.978,1.512
			c0.739,1.408,1.164,1.552,1.599-0.202c0.246-0.993,0.866-1.914,1.418-2.804c0.34-0.548,0.964-0.74,1.589-0.446
			C73.052,91.211,73.546,91.561,73.506,91.537z"/>
		<path fill="#F4F4F4" d="M103.905,142.64c-0.105-1.563-0.733-2.53,0.435-3.004c0.077-0.031,0.779,1.176,1.008,1.868
			c1.028,3.107,0.361,3.94-3.316,4.326c-1.211,0.127-2.178,1.939-3.61,0.546c-1.363-1.326-0.757-3.138-1.11-4.714
			c-0.129-0.578-0.095-1.361,0.635-1.453c0.781-0.098,0.781,0.647,0.795,1.235c0.015,0.598-0.018,1.205,0.082,1.789
			c0.109,0.639,0.558,1.134,1.213,1.105c0.681-0.03,0.99-0.602,1.022-1.252c0.03-0.598,0.008-1.2-0.021-1.799
			c-0.028-0.584-0.147-1.469,0.372-1.568c0.674-0.129,0.736,0.753,0.893,1.309c0.123,0.434,0.2,0.887,0.367,1.303
			c0.255,0.637,0.282,1.83,1.223,1.485C104.874,143.456,103.901,142.563,103.905,142.64z"/>
		<path fill="#F4F4F4" d="M170.505,128.165c-1.101-1.028-3.297-1.207-3.102-3.333c0.098-1.068,0.534-2.778,1.969-2.506
			c1.511,0.287,3.356,1.078,3.246,3.122C172.558,126.548,172.05,127.829,170.505,128.165z"/>
		<path fill="#F4F4F4" d="M87.676,92.49c-0.359,1.242-0.575,2.879-1.891,2.825c-1.588-0.066-3.326-1.008-3.508-2.827
			c-0.1-0.995,0.445-2.768,1.791-2.754C85.708,89.752,87.076,90.833,87.676,92.49z"/>
		<path fill="#F4F4F4" d="M122.575,88.69c-0.439,1.189-0.803,2.891-1.997,2.699c-1.474-0.237-3.366-1.101-3.47-2.926
			c-0.063-1.101,0.561-3.05,2.133-2.791C120.693,85.911,122.298,86.833,122.575,88.69z"/>
		<path fill="#F4F4F4" d="M117.956,75.669c-1.169-0.886-3.22-1.126-3.088-3.182c0.069-1.071,0.606-2.734,2.019-2.474
			c1.501,0.276,3.318,1.037,3.255,3.055C120.107,74.186,119.51,75.375,117.956,75.669z"/>
		<path fill="#F4F4F4" d="M195.595,103.199c-0.073,0.837,0.159,1.917-0.667,2.033c-1.112,0.156-0.787-1.059-0.867-1.664
			c-0.272-2.058-1.398-3.579-2.784-4.989c-0.566-0.576-0.895-1.333-0.292-1.979c0.979-1.05,1.584,0.031,2.143,0.613
			C194.757,98.909,195.324,101.062,195.595,103.199z"/>
		<path fill="#F4F4F4" d="M91.304,68.523c-1.496-0.927-3.451-1.203-3.585-3.115c-0.073-1.038,0.446-2.711,1.823-2.697
			c1.645,0.016,3.211,0.939,3.464,2.812C93.173,66.755,92.277,67.664,91.304,68.523z"/>
		<path fill="#F4F4F4" d="M71.084,132.818c-1.256-0.282-1.504-1.201-0.596-1.841c1.442-1.018,3.095-1.783,4.742-2.45
			c1.027-0.416,2.408-1.662,3.18-0.728c0.955,1.155-1.368,1.586-1.434,2.781C74.622,130.299,73.127,132.279,71.084,132.818z"/>
		<path fill="#F4F4F4" d="M71.084,132.818c2.043-0.538,3.538-2.518,5.892-2.239c0.86-0.106,1.766,0.284,0.917,1.041
			c-2.102,1.875-4.986,2.385-7.454,3.657c-0.389,0.2-0.887,0.115-0.92-0.492C69.458,133.683,70.713,133.596,71.084,132.818z"/>
		<path fill="#F4F4F4" d="M63.957,78.772c0.113-0.421,0.254-1.162,0.519-1.855c0.179-0.468,0.131-1.154,0.867-1.259
			c0.057,0.436,0.167,0.873,0.16,1.307c-0.014,0.892-0.342,2.08,0.51,2.494c1.079,0.525,1.994,0.767,0.941,2.08
			c-0.383,0.478-0.919,0.883-1.566,0.635c-0.956-0.367-1.219-1.255-1.362-2.17C63.98,79.706,63.99,79.401,63.957,78.772z"/>
		<path fill="#F4F4F4" d="M104.865,44.746c0.15,0.986-0.392,2.278,1.108,2.595c0.961,0.203,1.265,0.573,0.767,1.465
			c-0.302,0.54-0.67,0.98-1.329,1.078c-0.724,0.107-1.217-0.332-1.391-0.887c-0.653-2.092-0.406-4.139,0.578-6.092
			c0.121-0.239,0.332-0.434,0.501-0.649c0.081,0.26,0.264,0.537,0.223,0.777C105.223,43.618,105.021,44.187,104.865,44.746z"/>
		<path fill="#F4F4F4" d="M129.47,133.42c0.219-0.709,0.373-1.292,0.582-1.855c0.148-0.401,0.43-1.124,0.549-1.103
			c0.832,0.142,0.378,0.862,0.439,1.334c0.114,0.873-0.229,2.099,0.66,2.459c1.144,0.462,1.458,0.926,0.785,1.905
			c-0.337,0.491-0.871,0.882-1.536,0.644c-0.784-0.281-1.098-0.99-1.272-1.728C129.543,134.5,129.526,133.897,129.47,133.42z"/>
		<path fill="#F4F4F4" d="M181.442,68.994c-0.13,1.747-0.63,3.21,1.12,3.427c1.145,0.142,1.288,0.481,0.764,1.296
			c-0.305,0.475-0.77,0.999-1.273,1.16c-0.83,0.266-1.453-0.308-1.7-1.069c-0.48-1.483-0.23-3,0.126-4.46
			c0.16-0.655,0.685-1.221,1.044-1.827C182.273,68.248,181.433,68.896,181.442,68.994z"/>
		<path fill="#F4F4F4" d="M76.987,108.149c0.187-1.007,0.313-1.888,0.531-2.746c0.065-0.256,0.55-1.033,0.577-0.544
			c0.106,1.896,1.196,3.044,2.261,4.389c0.327,0.414-0.722,1.692-1.711,1.571C77.051,110.622,77.349,109.102,76.987,108.149z"/>
		<path fill="#F4F4F4" d="M81.444,143.472c-0.029,0.846-0.286,2.108,1.082,2.352c2.076,0.37,0.906,1.279,0.362,1.912
			c-0.708,0.824-1.629,0.717-2.216-0.163c-0.895-1.34-0.563-2.861-0.283-4.305c0.15-0.776,0.353-2.032,1.185-1.912
			C82.178,141.443,81.544,142.613,81.444,143.472z"/>
		<path fill="#F4F4F4" d="M130.962,147.864c1.137-0.007,1.747,0.581,1.72,1.631c-0.035,1.392-0.658,2.57-1.676,3.529
			c-0.457-1.273-0.018-2.817-1.46-3.852C129.197,148.921,130.271,148.097,130.962,147.864z"/>
	</g>
</g>
</svg>
